<svg width="40" height="35" viewBox="0 0 40 35" fill="none" xmlns="http://www.w3.org/2000/svg">
<path d="M29 0H8.00005C4.13405 0 1.00005 3.13401 1.00005 7V28C1.00005 31.866 4.13405 35 8.00005 35H29C32.866 35 36 31.866 36 28V7C36 3.13401 32.866 0 29 0Z" fill="#F22735"/>
<path d="M23.3202 8.54137C23.5176 8.6693 23.685 8.83825 23.8111 9.03679C23.9372 9.23534 24.0191 9.45868 24.0509 9.69171C24.1434 10.2636 24.1863 10.8441 24.2346 11.4204C24.2806 11.9689 24.2785 12.5221 24.3484 13.0671C24.4393 13.7916 24.5833 14.5096 24.7055 15.228C24.6884 15.2414 24.6704 15.2533 24.6507 15.2623C24.293 15.3618 23.9349 15.4576 23.5773 15.5571C22.7511 15.788 22.8243 15.6612 23.0375 16.492C23.1009 16.7481 23.2277 16.8065 23.4739 16.7361C23.9844 16.584 24.4996 16.4552 25.023 16.3128L25.451 17.4367C25.435 17.4538 25.4182 17.4699 25.3998 17.4844C25.0549 17.6698 24.7163 17.8578 24.3686 18.0381C23.7781 18.3507 23.7364 18.2908 24.0944 18.9386C24.2945 19.3001 24.3329 19.3128 24.6822 19.1218C25.108 18.8942 25.5325 18.6686 25.9506 18.4423L26.6694 19.5802C26.3379 19.8264 26.0263 20.0608 25.7137 20.2902C25.0524 20.7756 25.0747 20.6681 25.562 21.3421C25.716 21.5534 25.8576 21.5636 26.0604 21.4105C26.4791 21.0853 26.9131 20.7749 27.3452 20.4586C27.7883 20.8911 28.2008 21.315 28.6335 21.7115C29.633 22.5792 30.7201 23.3394 31.878 23.9805C32.2893 24.2148 32.6425 24.5391 32.9116 24.9285C33.1807 25.318 33.3592 25.7632 33.4329 26.2308C33.4438 26.3371 33.4118 26.4429 33.3447 26.5261C32.9124 27.0143 32.3439 27.3622 31.7125 27.525C30.9708 27.7101 30.198 27.7323 29.4469 27.5898C28.2205 27.3528 27.0424 26.9127 25.9608 26.2881C23.1067 24.7551 20.4291 22.9137 17.9767 20.7967C16.0376 19.1552 14.119 17.4899 12.1899 15.8392C11.0194 14.8366 9.83336 13.8547 8.68863 12.8254C7.7698 12.0082 6.98009 11.056 6.34743 10.0016C6.32148 9.97024 6.30209 9.93397 6.29061 9.89492C6.27913 9.85588 6.27611 9.81531 6.28097 9.7749C6.28582 9.7345 6.29875 9.69515 6.31915 9.65994C6.33955 9.62473 6.36674 9.59412 6.39938 9.56981C6.58382 9.39091 6.75626 9.20008 6.91539 8.99832C7.80813 7.76866 8.98572 6.77388 10.3478 6.10016C11.2909 5.66254 12.166 5.09075 12.9451 4.40229C13.0027 4.35178 13.0661 4.30841 13.1343 4.27365C13.1948 4.22965 13.2645 4.20013 13.338 4.18655C13.4115 4.17298 13.4873 4.17597 13.5595 4.19547C13.6317 4.21498 13.6979 4.2503 13.7545 4.29906C13.8112 4.34782 13.8562 4.40871 13.8863 4.47716C14.0319 4.75506 14.1414 5.05077 14.2106 5.35679C14.3725 6.06228 14.5214 6.77167 14.6382 7.48341C14.803 8.46715 15.2973 9.36611 16.0399 10.0321C17.1436 11.0199 18.4512 11.7522 19.87 12.1774C20.4746 12.3822 20.6914 12.2047 20.6995 11.5766C20.7012 11.1222 20.7636 10.6703 20.8848 10.2323C21.0598 9.5728 21.4499 8.99022 21.9934 8.57768C22.164 8.43006 22.3781 8.3422 22.6031 8.32638C22.8281 8.31057 23.0519 8.36796 23.2415 8.49027L23.3202 8.54137ZM8.87255 14.0654C11.4721 16.2949 14.0804 18.5144 16.6824 20.7395C18.8947 22.6805 21.2694 24.4279 23.7807 25.9625C25.0699 26.7951 26.4479 27.4815 27.8894 28.0082C28.7973 28.3962 29.7876 28.5507 30.7707 28.459C31.7538 28.3673 32.6991 28.0323 33.5196 27.4829C33.4675 27.6711 33.4419 27.804 33.3958 27.924C33.2261 28.3612 32.9527 28.7505 32.5982 29.0574C32.2436 29.3643 31.8189 29.5797 31.3619 29.685C30.4155 29.9524 29.4254 30.0311 28.4486 29.9166C26.8114 29.7316 25.2068 29.3294 23.6757 28.7205C21.3985 27.8657 19.2635 26.6721 17.3428 25.1797C16.3665 24.4186 15.4115 23.633 14.4254 22.887C12.9259 21.8566 11.3533 20.9364 9.7202 20.1344C7.88829 19.1579 6.13371 18.043 4.47201 16.7987C3.61392 16.1645 2.98727 15.2662 2.68814 14.242C2.55214 13.877 2.5364 13.4779 2.64403 13.1036C2.75166 12.7292 2.97664 12.3991 3.28572 12.162C4.05426 11.5469 4.83811 10.9534 5.63393 10.339C6.49408 11.756 7.58929 13.0161 8.87255 14.0654Z" fill="white"/>
</svg>
